<svg style="object-fit:cover" id="my-svg" version="1" baseProfile="full" width="100%" height="100%" viewBox="0 0 1366 625" xmlns="http://www.w3.org/2000/svg"><rect width="1366" height="625" fill="transparent"></rect><defs><radialGradient id="radial-gradient" cx="0.5" cy="0.75" r="0"><stop offset="0%" stop-color="#42c2ff90"></stop><stop offset="100%" stop-color="#42f2ff90"></stop></radialGradient></defs><path transform="scale(1, 1)" d="M 0,625 V 0,312 C 82.44957264957267,359.0897435897436 164.89914529914535,406.1794871794872 237,423 C 309.10085470085465,439.8205128205128 370.85299145299143,426.37179487179486 437,407 C 503.14700854700857,387.62820512820514 573.6888888888889,362.3333333333333 662,366 C 750.3111111111111,369.6666666666667 856.391452991453,402.29487179487177 935,389 C 1013.608547008547,375.70512820512823 1064.745299145299,316.4871794871795 1132,296 C 1199.254700854701,275.5128205128205 1282.6273504273504,293.7564102564103 1366,312 C 1366,312 1366,625 1366,625 Z" stroke="none" stroke-width="0" fill="url(#radial-gradient)" class="transition-all duration-300 ease-in-out delay-150" style="transform-origin: center center;"></path><defs><radialGradient id="radial-gradient" cx="0.5" cy="0.75" r="0"><stop offset="0%" stop-color="#42c2ffff"></stop><stop offset="100%" stop-color="#42f2ffff"></stop></radialGradient></defs><path transform="scale(1, 1)" d="M 0,625 V 0,468 C 100.01111111111112,475.57948717948716 200.02222222222224,483.1589743589743 263,478 C 325.97777777777776,472.8410256410257 351.92222222222216,454.9435897435898 412,442 C 472.07777777777784,429.0564102564102 566.288888888889,421.06666666666666 651,451 C 735.711111111111,480.93333333333334 810.9222222222222,548.7897435897436 892,548 C 973.0777777777778,547.2102564102564 1060.0222222222221,477.77435897435896 1140,453 C 1219.9777777777779,428.22564102564104 1292.988888888889,448.1128205128205 1366,468 C 1366,468 1366,625 1366,625 Z" stroke="none" stroke-width="0" fill="url(#radial-gradient)" class="transition-all duration-300 ease-in-out delay-150" style="transform-origin: center center;"></path></svg>